<?xml version="1.0" standalone="no"?>
<!DOCTYPE svg PUBLIC "-//W3C//DTD SVG 20010904//EN"
 "http://www.w3.org/TR/2001/REC-SVG-20010904/DTD/svg10.dtd">
<svg version="1.0" xmlns="http://www.w3.org/2000/svg"
 width="500.000000pt" height="500.000000pt" viewBox="0 0 500.000000 500.000000"
 preserveAspectRatio="xMidYMid meet">

<g transform="translate(0.000000,500.000000) scale(0.100000,-0.100000)"
fill="#000000" stroke="none">
<path d="M2364 4501 c-86 -21 -174 -62 -361 -169 -167 -95 -271 -138 -448
-186 -299 -81 -376 -116 -480 -221 -101 -101 -140 -188 -233 -525 -40 -144
-86 -251 -184 -426 -108 -192 -136 -253 -159 -343 -47 -182 -12 -310 168 -626
101 -177 140 -274 204 -505 121 -438 204 -513 729 -658 144 -40 251 -86 426
-184 192 -108 253 -136 343 -159 181 -46 316 -11 617 163 196 113 253 136 549
218 198 55 300 106 386 190 98 96 144 196 224 485 55 199 84 269 199 474 170
303 200 415 160 594 -18 79 -77 211 -153 339 -110 187 -153 288 -211 503 -78
284 -124 380 -228 476 -92 85 -199 130 -512 217 -144 40 -251 86 -426 184
-192 108 -253 136 -343 159 -90 23 -173 23 -267 0z m-423 -754 c42 -27 69 -79
69 -130 0 -25 -50 -167 -150 -422 -82 -212 -154 -404 -160 -427 -23 -101 -6
-248 39 -336 65 -128 193 -238 321 -275 21 -7 267 -13 622 -16 572 -6 587 -7
614 -27 52 -39 69 -71 69 -132 -1 -44 -6 -64 -25 -89 -47 -65 -41 -64 -695
-61 -527 3 -596 6 -650 21 -115 34 -273 115 -258 132 5 4 3 5 -3 2 -11 -7 -77
44 -127 98 -92 98 -163 222 -199 345 -27 93 -32 319 -9 415 18 75 315 839 339
870 42 56 143 72 203 32z m679 3 c45 -23 80 -80 80 -130 0 -31 -47 -160 -213
-580 -46 -118 -102 -260 -123 -315 -58 -153 -98 -195 -184 -195 -52 0 -92 21
-125 65 -38 48 -36 102 5 206 18 46 48 125 67 174 19 50 43 111 54 136 10 26
63 162 119 303 55 141 107 270 115 286 33 63 132 87 205 50z m667 -2267 c84
-39 108 -160 46 -233 -49 -59 -56 -60 -502 -60 -401 0 -406 1 -446 23 -28 15
-47 37 -64 71 -22 44 -23 53 -13 93 7 25 20 55 30 68 39 54 44 55 495 55 371
0 423 -2 454 -17z"/>
</g>
</svg>
